# xmcd CD database file
#
# Track frame offsets:
#	150
#	16034
#	32740
#	45146
#	58303
#	68580
#	87371
#	101732
#	121773
#	139480
#	152016
#
# Disc length: 2158 seconds
#
# Revision: 1
# Processed by: cddbd v1.5.2PL0 Copyright (c) Steve Scherf et al.
# Submitted via: CDex 1.70beta2
#
DISCID=87086c0b
DTITLE=Mick D. and the Bravehearts - Hard Work
DYEAR=2006
DGENRE=Country
TTITLE0=Until The Mornin´Light
TTITLE1=Beer For My Horses
TTITLE2=On The Road Again
TTITLE3=Get Back To The Country
TTITLE4=Back To My Baby´s Arms
TTITLE5=Adios Amigo
TTITLE6=Buona Sera
TTITLE7=Lay Back In The Arms Of Someone
TTITLE8=Peaceful Easy Feeling
TTITLE9=Summertime Blues
TTITLE10=Ready For Love
EXTD=YEAR: 2006
EXTT0=
EXTT1=
EXTT2=
EXTT3=
EXTT4=
EXTT5=
EXTT6=
EXTT7=
EXTT8=
EXTT9=
EXTT10=
PLAYORDER=
